<?xml version="1.0" encoding="UTF-8"?>
<svg id="_图层_1" data-name="图层_1" xmlns="http://www.w3.org/2000/svg" version="1.1" viewBox="0 0 100 100">
  <!-- Generator: Adobe Illustrator 29.6.1, SVG Export Plug-In . SVG Version: 2.1.1 Build 9)  -->
  <defs>
    <style>
      .st0 {
        fill: #040000;
      }

      .st1 {
        fill: #da6e0e;
      }
    </style>
  </defs>
  <path class="st1" d="M53.09,50.06l25.81,27.97c5.03,5.45,13.51,5.82,18.99.83l1.12-1.02-25.9-28.07,25.21-27.11-.68-.6c-5.53-4.93-13.98-4.56-19.05.85l-25.49,27.16ZM46.71,50.28l-25.85-27.93c-5.03-5.44-13.52-5.79-18.99-.8l-1.12,1.02,25.94,28.03L1.53,77.75l.68.6c5.54,4.92,13.99,4.53,19.05-.88l25.45-27.2Z"/>
  <path class="st0" d="M26.44,93.31,17.76,88.07l32.24-34.69,31.98,34.64h0c-5.29,5.39-13.99,5.3-19.16-.19l-13.35-14.16-12.18,13.95c-5.11,5.86-14.15,6.07-19.53.46h0M81.98,12.22l-32.19,34.74L17.76,12.37h0c5.28-5.39,13.98-5.32,19.16.16l13.37,14.14,12.16-13.97c5.1-5.86,14.14-6.09,19.53-.49h0"/>
</svg>